<svg width="645" height="1080" viewBox="0 0 645 1080" fill="none" xmlns="http://www.w3.org/2000/svg">
<path d="M734.786 561C734.786 605.926 697.291 642.375 651 642.375C604.71 642.375 567.214 605.926 567.214 561C567.214 516.074 604.71 479.625 651 479.625C697.291 479.625 734.786 516.074 734.786 561Z" stroke="#EAC5B3" stroke-opacity="0.4" stroke-width="1.20556"/>
<circle cx="651" cy="561" r="224.836" stroke="#EAC5B3" stroke-opacity="0.4" stroke-width="1.20556"/>
<path d="M1016.89 561C1016.89 763.741 853.072 928.092 651 928.092C448.929 928.092 285.114 763.741 285.114 561C285.114 358.259 448.929 193.908 651 193.908C853.072 193.908 1016.89 358.259 1016.89 561Z" stroke="#EAC5B3" stroke-opacity="0.4" stroke-width="1.20556"/>
<path d="M1157.94 561C1157.94 841.64 930.972 1069.14 651 1069.14C371.028 1069.14 144.064 841.64 144.064 561C144.064 280.36 371.028 52.8584 651 52.8584C930.972 52.8584 1157.94 280.36 1157.94 561Z" stroke="#EAC5B3" stroke-opacity="0.4" stroke-width="1.20556"/>
<circle cx="651" cy="561" r="650.397" stroke="#EAC5B3" stroke-opacity="0.4" stroke-width="1.20556"/>
</svg>
