<svg width="1162" height="1080" viewBox="0 0 1162 1080" fill="none" xmlns="http://www.w3.org/2000/svg">
<path d="M734.786 477C734.786 521.926 697.29 558.375 651 558.375C604.71 558.375 567.214 521.926 567.214 477C567.214 432.074 604.71 395.625 651 395.625C697.29 395.625 734.786 432.074 734.786 477Z" stroke="white" stroke-opacity="0.18" stroke-width="1.20556"/>
<circle cx="651" cy="477" r="224.836" stroke="white" stroke-opacity="0.18" stroke-width="1.20556"/>
<path d="M1016.89 477C1016.89 679.741 853.071 844.092 651 844.092C448.929 844.092 285.114 679.741 285.114 477C285.114 274.259 448.929 109.908 651 109.908C853.071 109.908 1016.89 274.259 1016.89 477Z" stroke="white" stroke-opacity="0.18" stroke-width="1.20556"/>
<path d="M1157.94 477C1157.94 757.64 930.972 985.142 651 985.142C371.028 985.142 144.064 757.64 144.064 477C144.064 196.36 371.028 -31.1416 651 -31.1416C930.972 -31.1416 1157.94 196.36 1157.94 477Z" stroke="white" stroke-opacity="0.18" stroke-width="1.20556"/>
<circle cx="651" cy="477" r="650.397" stroke="white" stroke-opacity="0.18" stroke-width="1.20556"/>
</svg>
