<svg width="1302" height="1302" viewBox="0 0 1302 1302" fill="none" xmlns="http://www.w3.org/2000/svg">
<path d="M734.786 651C734.786 695.926 697.29 732.375 651 732.375C604.71 732.375 567.214 695.926 567.214 651C567.214 606.074 604.71 569.625 651 569.625C697.29 569.625 734.786 606.074 734.786 651Z" stroke="white" stroke-opacity="0.18" stroke-width="1.20556"/>
<circle cx="651" cy="651" r="224.836" stroke="white" stroke-opacity="0.18" stroke-width="1.20556"/>
<path d="M1016.89 651C1016.89 853.741 853.071 1018.09 651 1018.09C448.929 1018.09 285.114 853.741 285.114 651C285.114 448.259 448.929 283.908 651 283.908C853.071 283.908 1016.89 448.259 1016.89 651Z" stroke="white" stroke-opacity="0.18" stroke-width="1.20556"/>
<path d="M1157.94 651C1157.94 931.64 930.972 1159.14 651 1159.14C371.028 1159.14 144.064 931.64 144.064 651C144.064 370.36 371.028 142.858 651 142.858C930.972 142.858 1157.94 370.36 1157.94 651Z" stroke="white" stroke-opacity="0.18" stroke-width="1.20556"/>
<circle cx="651" cy="651" r="650.397" stroke="white" stroke-opacity="0.18" stroke-width="1.20556"/>
</svg>
