<svg width="112" height="96" viewBox="0 0 112 96" fill="none" xmlns="http://www.w3.org/2000/svg">
<path d="M103.894 9.27281H88.9429V2.24491C88.9429 1.04078 87.9666 0.0646973 86.7627 0.0646973H25.2371C24.0332 0.0646973 23.0569 1.04078 23.0569 2.24491V9.27281H8.10548C3.73896 9.27281 0.186523 12.8255 0.186523 17.192V87.5376C0.186523 91.9041 3.73896 95.4567 8.10548 95.4567H103.894C108.261 95.4567 111.813 91.9041 111.813 87.5376V17.192C111.813 12.8255 108.261 9.27281 103.894 9.27281ZM27.4173 4.42512H84.5824V9.27281H27.4173V4.42512ZM107.453 87.5376C107.453 89.4997 105.856 91.0963 103.894 91.0963H73.246C84.6021 84.9459 92.332 72.921 92.332 59.1244C92.332 39.0909 76.0334 22.7923 55.9997 22.7923C35.9659 22.7923 19.6676 39.0909 19.6676 59.1244C19.6676 72.9208 27.3973 84.9457 38.7536 91.0963H8.10548C6.14329 91.0963 4.54694 89.5 4.54694 87.5376V17.192C4.54694 15.2298 6.14329 13.6332 8.10548 13.6332H103.894C105.856 13.6332 107.453 15.2296 107.453 17.192V87.5376H107.453ZM55.9999 91.0963C38.3707 91.0963 24.028 76.7538 24.028 59.1244C24.028 41.4952 38.3705 27.1527 55.9999 27.1527C73.6293 27.1527 87.9718 41.4952 87.9718 59.1244C87.9718 76.7538 73.6291 91.0963 55.9999 91.0963Z" fill="#262B38"/>
<path d="M55.9999 32.3853C41.2558 32.3853 29.2607 44.3803 29.2607 59.1244C29.2607 73.8685 41.2558 85.8638 55.9999 85.8638C70.744 85.8638 82.7393 73.8685 82.7393 59.1244C82.7393 44.3803 70.744 32.3853 55.9999 32.3853ZM55.9999 81.5034C43.6602 81.5034 33.6212 71.4644 33.6212 59.1244C33.6212 46.7847 43.6604 36.7457 55.9999 36.7457C68.3395 36.7457 78.3789 46.7847 78.3789 59.1244C78.3789 71.4642 68.3397 81.5034 55.9999 81.5034Z" fill="#262B38"/>
<path d="M100.407 17.4484H85.2381C84.0342 17.4484 83.0579 18.4244 83.0579 19.6286V28.816C83.0579 30.0201 84.0342 30.9962 85.2381 30.9962H100.407C101.611 30.9962 102.587 30.0201 102.587 28.816V19.6286C102.587 18.4244 101.611 17.4484 100.407 17.4484ZM98.2265 26.6358H87.4183V21.8088H98.2265V26.6358Z" fill="#262B38"/>
</svg>
