<svg width="37" height="30" viewBox="0 0 37 30" fill="none" xmlns="http://www.w3.org/2000/svg">
<path d="M36.6132 10.5086C36.3158 4.94602 31.8202 0.588867 26.3788 0.588867C23.1427 0.588867 20.4829 2.53885 18.8314 4.15875C17.2008 2.53819 14.5527 0.588867 11.2475 0.588867C5.80637 0.588867 1.311 4.94602 1.0134 10.509C0.83353 13.8779 2.13402 16.2724 3.12776 17.7809C5.46168 21.3222 15.6151 28.1273 17.627 29.4555C17.9913 29.6962 18.4097 29.8163 18.8283 29.8163C19.2467 29.8163 19.6653 29.696 20.0296 29.4555C21.2584 28.6442 32.1028 21.4249 34.5008 17.7785C35.4939 16.2674 36.7935 13.8698 36.6132 10.5086ZM30.857 15.3831C29.5449 17.378 23.2295 22.0308 18.8279 25.0127C14.4097 22.0206 8.07139 17.3582 6.7685 15.3814C5.69932 13.7589 5.28029 12.3709 5.36706 10.7415C5.53799 7.54766 8.17583 4.94928 11.2471 4.94928C13.8888 4.94928 16.2967 7.66234 16.9972 8.70121C17.3942 9.29924 18.062 9.66072 18.7795 9.67271C18.7917 9.67293 18.8035 9.67293 18.8155 9.67293C19.5197 9.67293 20.1833 9.32998 20.593 8.7555C21.3476 7.697 23.8579 4.9495 26.3784 4.9495C29.4499 4.9495 32.0879 7.54788 32.2589 10.7419C32.3461 12.3674 31.9266 13.7556 30.857 15.3831Z" fill="url(#paint0_linear)"/>
<defs>
<linearGradient id="paint0_linear" x1="36.6301" y1="2.87643" x2="-7.95677" y2="37.9595" gradientUnits="userSpaceOnUse">
<stop stop-color="#EAC5B3"/>
<stop offset="1"/>
</linearGradient>
</defs>
</svg>
