<svg width="112" height="96" viewBox="0 0 112 96" fill="none" xmlns="http://www.w3.org/2000/svg">
<path d="M103.708 9.64257H88.7563V2.61466C88.7563 1.41053 87.78 0.434448 86.5761 0.434448H25.0506C23.8467 0.434448 22.8704 1.41053 22.8704 2.61466V9.64257H7.91896C3.55243 9.64257 0 13.1952 0 17.5617V87.9073C0 92.2738 3.55243 95.8265 7.91896 95.8265H103.708C108.074 95.8265 111.627 92.2738 111.627 87.9073V17.5617C111.627 13.1952 108.074 9.64257 103.708 9.64257ZM27.2308 4.79487H84.3959V9.64257H27.2308V4.79487ZM107.266 87.9073C107.266 89.8695 105.67 91.4661 103.708 91.4661H73.0595C84.4155 85.3157 92.1455 73.2907 92.1455 59.4942C92.1455 39.4606 75.8469 23.162 55.8131 23.162C35.7794 23.162 19.481 39.4606 19.481 59.4942C19.481 73.2905 27.2108 85.3155 38.567 91.4661H7.91896C5.95677 91.4661 4.36042 89.8697 4.36042 87.9073V17.5617C4.36042 15.5996 5.95677 14.003 7.91896 14.003H103.708C105.67 14.003 107.266 15.5993 107.266 17.5617V87.9073H107.266ZM55.8134 91.4661C38.1842 91.4661 23.8415 77.1236 23.8415 59.4942C23.8415 41.865 38.184 27.5225 55.8134 27.5225C73.4428 27.5225 87.7853 41.865 87.7853 59.4942C87.7853 77.1236 73.4425 91.4661 55.8134 91.4661Z" fill="url(#paint0_linear)"/>
<path d="M55.8134 32.755C41.0693 32.755 29.0742 44.7501 29.0742 59.4942C29.0742 74.2383 41.0693 86.2336 55.8134 86.2336C70.5575 86.2336 82.5528 74.2383 82.5528 59.4942C82.5528 44.7501 70.5575 32.755 55.8134 32.755ZM55.8134 81.8732C43.4736 81.8732 33.4346 71.8342 33.4346 59.4942C33.4346 47.1544 43.4738 37.1154 55.8134 37.1154C68.1529 37.1154 78.1924 47.1544 78.1924 59.4942C78.1924 71.834 68.1532 81.8732 55.8134 81.8732Z" fill="url(#paint1_linear)"/>
<path d="M100.22 17.8181H85.0515C83.8476 17.8181 82.8713 18.7942 82.8713 19.9983V29.1857C82.8713 30.3899 83.8476 31.3659 85.0515 31.3659H100.22C101.424 31.3659 102.4 30.3899 102.4 29.1857V19.9983C102.4 18.7942 101.424 17.8181 100.22 17.8181ZM98.0399 27.0055H87.2318V22.1785H98.0399V27.0055Z" fill="url(#paint2_linear)"/>
<defs>
<linearGradient id="paint0_linear" x1="88.2131" y1="9.60439" x2="14.9053" y2="95.8265" gradientUnits="userSpaceOnUse">
<stop stop-color="#EAC5B3"/>
<stop offset="1"/>
</linearGradient>
<linearGradient id="paint1_linear" x1="73.0281" y1="32.755" x2="29.0742" y2="91.8139" gradientUnits="userSpaceOnUse">
<stop stop-color="#EAC5B3"/>
<stop offset="1"/>
</linearGradient>
<linearGradient id="paint2_linear" x1="95.544" y1="20.6005" x2="76.6934" y2="37.8802" gradientUnits="userSpaceOnUse">
<stop stop-color="#EAC5B3"/>
<stop offset="1"/>
</linearGradient>
</defs>
</svg>
