<svg width="36" height="30" viewBox="0 0 36 30" fill="none" xmlns="http://www.w3.org/2000/svg">
<path d="M35.7997 10.1389C35.5023 4.57627 31.0067 0.219116 25.5654 0.219116C22.3293 0.219116 19.6694 2.1691 18.0179 3.78899C16.3873 2.16844 13.7392 0.219116 10.434 0.219116C4.9929 0.219116 0.497519 4.57626 0.199921 10.1393C0.0200534 13.5081 1.32055 15.9027 2.31429 17.4112C4.6482 20.9525 14.8017 27.7576 16.8136 29.0858C17.1779 29.3264 17.5963 29.4466 18.0149 29.4466C18.4332 29.4466 18.8518 29.3262 19.2162 29.0858C20.4449 28.2745 31.2893 21.0552 33.6873 17.4088C34.6804 15.8977 35.98 13.5001 35.7997 10.1389ZM30.0435 15.0134C28.7315 17.0083 22.416 21.661 18.0144 24.6429C13.5962 21.6508 7.25792 16.9884 5.95502 15.0116C4.88585 13.3891 4.46681 12.0012 4.55358 10.3717C4.72451 7.17791 7.36235 4.57953 10.4336 4.57953C13.0754 4.57953 15.4832 7.29259 16.1837 8.33146C16.5807 8.92949 17.2485 9.29097 17.966 9.30296C17.9782 9.30318 17.99 9.30318 18.002 9.30318C18.7062 9.30318 19.3699 8.96023 19.7795 8.38575C20.5341 7.32725 23.0444 4.57975 25.5649 4.57975C28.6364 4.57975 31.2745 7.17813 31.4454 10.3721C31.5326 11.9977 31.1131 13.3858 30.0435 15.0134Z" fill="#262B38"/>
</svg>
