<svg width="50" height="40" viewBox="0 0 50 40" fill="none" xmlns="http://www.w3.org/2000/svg">
<path d="M23.8197 39.4853C24.1841 39.726 24.6024 39.8462 25.021 39.8462C25.4394 39.8462 25.858 39.7258 26.2223 39.4856C27.9429 38.3495 43.1283 28.2422 46.4185 23.2393C47.8653 21.0382 49.4952 17.9429 49.2573 13.5075C49.0701 10.0019 47.5858 6.71047 45.0785 4.2392C42.5279 1.72498 39.1946 0.340332 35.6925 0.340332C31.0341 0.340332 27.1755 3.53303 25.0337 5.7841C22.9413 3.5206 19.1412 0.340332 14.3068 0.340332C10.8052 0.340332 7.47187 1.72498 4.92124 4.2392C2.41422 6.71047 0.930151 10.0019 0.742653 13.5077C0.502611 18.0037 2.24896 21.2158 3.58368 23.2415C6.85334 28.2023 22.0928 38.3453 23.8197 39.4853ZM5.09675 13.7406C5.36382 8.75616 9.49532 4.70097 14.3068 4.70097C19.2982 4.70097 23.1491 10.354 23.1844 10.4066C23.5827 11.0064 24.2512 11.3711 24.9713 11.3809C24.9811 11.3811 24.9912 11.3811 25.001 11.3811C25.71 11.3811 26.3754 11.0362 26.784 10.4556C26.8247 10.3981 30.9656 4.70097 35.6925 4.70097C40.5047 4.70097 44.6364 8.75616 44.9032 13.7408C45.0373 16.2456 44.4007 18.3698 42.7747 20.8437C40.5919 24.163 30.1517 31.5845 25.0208 35.0445C19.8723 31.5736 9.39242 24.1314 7.22442 20.8421C5.59929 18.3755 4.96288 16.2515 5.09675 13.7406Z" fill="#262B38"/>
</svg>
