<svg width="50" height="41" viewBox="0 0 50 41" fill="none" xmlns="http://www.w3.org/2000/svg">
<path d="M23.6331 39.8551C23.9974 40.0958 24.4158 40.2159 24.8344 40.2159C25.2528 40.2159 25.6714 40.0956 26.0357 39.8553C27.7563 38.7192 42.9417 28.612 46.2318 23.609C47.6786 21.4079 49.3086 18.3127 49.0707 13.8772C48.8834 10.3717 47.3991 7.08022 44.8919 4.60895C42.3413 2.09473 39.0079 0.710083 35.5059 0.710083C30.8474 0.710083 26.9889 3.90278 24.847 6.15385C22.7547 3.89035 18.9546 0.710083 14.1202 0.710083C10.6185 0.710083 7.28523 2.09473 4.7346 4.60895C2.22757 7.08022 0.743505 10.3717 0.556007 13.8775C0.315966 18.3735 2.06231 21.5856 3.39704 23.6112C6.6667 28.5721 21.9061 38.7151 23.6331 39.8551ZM4.9101 14.1103C5.17718 9.12591 9.30868 5.07072 14.1202 5.07072C19.1116 5.07072 22.9625 10.7238 22.9978 10.7763C23.3961 11.3761 24.0646 11.7409 24.7847 11.7507C24.7945 11.7509 24.8045 11.7509 24.8143 11.7509C25.5233 11.7509 26.1887 11.406 26.5973 10.8254C26.6381 10.7678 30.7789 5.07072 35.5059 5.07072C40.318 5.07072 44.4497 9.12591 44.7166 14.1105C44.8507 16.6154 44.2141 18.7395 42.5881 21.2134C40.4052 24.5328 29.9651 31.9542 24.8342 35.4142C19.6856 31.9433 9.20577 24.5012 7.03777 21.2119C5.41264 18.7452 4.77624 16.6213 4.9101 14.1103Z" fill="url(#paint0_linear)"/>
<defs>
<linearGradient id="paint0_linear" x1="42.7169" y1="4.94878" x2="-7.25211" y2="50.9379" gradientUnits="userSpaceOnUse">
<stop stop-color="#EAC5B3"/>
<stop offset="1"/>
</linearGradient>
</defs>
</svg>
