<svg width="112" height="64" viewBox="0 0 112 64" fill="none" xmlns="http://www.w3.org/2000/svg">
<path d="M109.465 44.4639C108.849 43.6077 108.121 42.8987 107.294 42.3434V27.6318C107.294 20.0612 104.279 13.192 98.8047 8.28895C93.5321 3.56684 86.3592 0.966064 78.6072 0.966064C70.8553 0.966064 63.6824 3.56684 58.4096 8.28895C54.3367 11.9367 51.6252 16.673 50.5039 21.9765C50.4917 19.957 50.2994 17.8324 49.927 15.6099C49.535 13.2714 49.0109 11.2946 48.6403 10.0482C47.8635 7.43693 47.6788 7.27886 47.2739 6.93286C46.8152 6.54021 46.2141 6.35489 45.613 6.42335C45.0128 6.49115 44.4673 6.80488 44.1072 7.28976C44.0235 7.4027 43.604 7.58125 42.5697 7.54528C41.2661 7.49732 39.5739 7.13497 37.7824 6.75125C33.1392 5.75729 26.9332 4.42824 23.6431 8.60399C16.1 7.21476 10.5239 8.38575 7.05385 12.0919C2.36989 17.0946 3.15455 25.1688 3.88906 29.0611C1.60812 30.0102 0 32.2615 0 34.8812C0 37.7623 1.94475 40.1979 4.5913 40.9452C5.56128 50.5523 11.0183 57.067 20.1637 59.5381L20.08 61.1965C20.0193 62.3992 20.9451 63.4232 22.1474 63.4838C22.1849 63.4858 22.222 63.4866 22.2593 63.4866C23.4128 63.4866 24.3761 62.5814 24.4349 61.4163L24.6102 57.9428C24.6645 56.8647 23.9217 55.9089 22.8634 55.6957C14.0434 53.9186 9.18675 48.1155 8.81851 38.9137C8.77164 37.7447 7.81017 36.8207 6.64005 36.8207H6.30364C5.23229 36.8207 4.36064 35.9506 4.36064 34.881C4.36064 33.8114 5.23229 32.9412 6.30364 32.9412H6.62217C6.73074 32.9412 6.83736 32.9332 6.94157 32.9179C7.61809 32.9807 8.7119 33.0544 10.1236 33.0544C15.6044 33.0542 25.871 31.9455 35.0822 24.7918C36.3452 27.8609 38.1851 30.8373 42.0632 32.4945C42.288 32.5907 42.5276 32.6482 42.7714 32.6648L46.747 32.9362C46.8187 32.941 46.8898 32.9423 46.9604 32.9404C46.9816 32.941 47.0027 32.9415 47.0239 32.9415H47.5244C48.5958 32.9415 49.4674 33.8116 49.4674 34.8812C49.4674 35.9506 48.5958 36.8209 47.5244 36.8209H47.0058C45.8356 36.8209 44.8742 37.7447 44.8273 38.9139C44.4591 48.1157 39.6024 53.9186 30.7826 55.6959C29.7243 55.9091 28.9815 56.8647 29.0358 57.943L29.2142 61.4806C29.273 62.646 30.2362 63.551 31.3898 63.551C31.4269 63.551 31.4641 63.5501 31.5016 63.5481C32.7042 63.4875 33.63 62.4632 33.5691 61.2609L33.4824 59.5383C38.8526 58.0871 42.9508 55.2417 45.6157 51.1948C45.5973 51.5288 45.588 51.8683 45.588 52.2132C45.588 58.465 50.6844 63.5512 56.9486 63.5512H74.9205C76.1246 63.5512 77.1007 62.5749 77.1007 61.371V55.1207C77.1007 54.0825 76.3686 53.1884 75.3507 52.9833C67.7592 51.4554 62.2491 44.7312 62.2491 36.9947V32.9101C67.5795 32.7572 71.3101 32.0129 74.1688 30.5539C76.0448 29.5964 77.5261 28.326 78.6072 26.7525C79.6884 28.3262 81.1696 29.5964 83.0457 30.5539C85.9044 32.0129 89.6348 32.7572 94.9654 32.9101V36.9943C94.9654 44.7307 89.4553 51.4549 81.8638 52.9828C80.8459 53.1878 80.1138 54.0821 80.1138 55.1203V61.3705C80.1138 62.5744 81.0901 63.5507 82.294 63.5507H100.266C106.53 63.5507 111.627 58.4645 111.627 52.2128C111.627 49.1086 110.879 46.4291 109.465 44.4639ZM49.9207 29.0537C49.8559 29.0269 49.7905 29.0014 49.7247 28.9767C49.7947 28.6933 49.8601 28.4071 49.9207 28.1177V29.0537ZM38.1096 20.402C37.8685 19.7076 37.2936 19.1815 36.5804 19.0029C35.8684 18.8244 35.1127 19.0162 34.5722 19.5149C29.5756 24.1219 23.4078 27.0388 16.2395 28.1845C12.7592 28.7406 9.86937 28.7212 8.23858 28.6349C7.50951 25.0992 6.98866 18.542 10.2372 15.0727C12.8076 12.3274 17.5084 11.6864 24.2099 13.168C25.1904 13.383 26.1935 12.9008 26.6374 12.0003L26.6574 11.9604C27.9823 9.33044 31.5609 9.87876 36.8695 11.0155C39.6981 11.6212 42.4249 12.2053 44.5958 11.7559C45.6032 15.29 47.0749 22.2482 45.3497 28.4703L43.4577 28.3412C40.5107 26.9411 39.4932 24.3835 38.1096 20.402ZM48.7081 43.3382C48.8528 42.5791 48.9669 41.7979 49.0493 40.9947C49.3486 40.9202 49.6397 40.824 49.9205 40.7082V42.3436C49.4888 42.6336 49.0842 42.9654 48.7081 43.3382ZM100.266 59.1903H84.4744V56.825C93.1796 54.2648 99.326 46.1943 99.326 36.9943V22.6864C99.326 21.4825 98.3497 20.5062 97.1458 20.5062C95.9417 20.5062 94.9656 21.4825 94.9656 22.6864V28.547C84.6769 28.2252 80.7877 25.4779 80.7877 18.8043C80.7877 17.6004 79.8114 16.6241 78.6075 16.6241C77.4035 16.6241 76.4273 17.6004 76.4273 18.8043C76.4273 25.4777 72.5378 28.2252 62.2493 28.547V22.6864C62.2493 21.4825 61.273 20.5062 60.0691 20.5062C58.8652 20.5062 57.8889 21.4825 57.8889 22.6864V36.9943C57.8889 46.1943 64.0354 54.2648 72.7405 56.825V59.1903H56.9488C53.0888 59.1903 49.9486 56.0604 49.9486 52.2128C49.9486 49.6133 50.6114 45.2573 55.0405 45.2352H55.0808C56.2836 45.2311 57.2558 44.2539 57.2538 43.0513C57.2517 41.8485 56.2764 40.8748 55.0736 40.8748H55.0616C54.8118 40.8722 54.5406 40.8637 54.2813 40.8452V27.632C54.2813 14.7075 64.5122 5.3267 78.6077 5.3267C92.7032 5.3267 102.934 14.7073 102.934 27.632V40.8452C102.67 40.8639 102.394 40.8713 102.142 40.8748C100.939 40.8748 99.9637 41.8487 99.9615 43.0513C99.9596 44.2539 100.932 45.2311 102.135 45.2352H102.175C106.604 45.257 107.266 49.6133 107.266 52.2128C107.266 56.0602 104.126 59.1903 100.266 59.1903Z" fill="url(#paint0_linear)"/>
<path d="M82.1252 45.0731C81.2751 44.2208 79.8942 44.2193 79.0419 45.0694C78.8021 45.3083 78.4125 45.3083 78.1729 45.0694C77.3204 44.2193 75.9404 44.2202 75.0896 45.0731C74.2391 45.9253 74.2409 47.3058 75.0933 48.1563C76.062 49.123 77.3348 49.6062 78.6074 49.6062C79.88 49.6062 81.1528 49.1228 82.1215 48.1563C82.9739 47.3058 82.9757 45.9253 82.1252 45.0731Z" fill="url(#paint1_linear)"/>
<path d="M88.6138 38.7235V35.8877C88.6138 34.6838 87.6378 33.7075 86.4336 33.7075C85.2297 33.7075 84.2534 34.6838 84.2534 35.8877V38.7235C84.2534 39.9274 85.2297 40.9037 86.4336 40.9037C87.6378 40.9037 88.6138 39.9274 88.6138 38.7235Z" fill="url(#paint2_linear)"/>
<path d="M68.6011 35.8877V38.7235C68.6011 39.9274 69.5774 40.9037 70.7813 40.9037C71.9854 40.9037 72.9615 39.9274 72.9615 38.7235V35.8877C72.9615 34.6838 71.9854 33.7075 70.7813 33.7075C69.5774 33.7075 68.6011 34.6836 68.6011 35.8877Z" fill="url(#paint3_linear)"/>
<path d="M30.4323 47.7713C29.5818 46.9186 28.2015 46.9169 27.3488 47.767C27.1087 48.0064 26.7185 48.0061 26.4791 47.767C25.6264 46.9169 24.2459 46.9189 23.3956 47.7713C22.5456 48.624 22.5473 50.0043 23.4 50.8548C24.3687 51.8211 25.6412 52.3038 26.9141 52.3038C28.1866 52.3038 29.4592 51.8208 30.4279 50.8548C31.2806 50.0043 31.2823 48.624 30.4323 47.7713Z" fill="url(#paint4_linear)"/>
<path d="M36.9202 41.4215V38.5857C36.9202 37.3818 35.9439 36.4055 34.74 36.4055C33.5359 36.4055 32.5598 37.3818 32.5598 38.5857V41.4215C32.5598 42.6254 33.5359 43.6017 34.74 43.6017C35.9439 43.6017 36.9202 42.6254 36.9202 41.4215Z" fill="url(#paint5_linear)"/>
<path d="M16.9078 38.5857V41.4215C16.9078 42.6254 17.8841 43.6017 19.088 43.6017C20.292 43.6017 21.2683 42.6254 21.2683 41.4215V38.5857C21.2683 37.3818 20.292 36.4055 19.088 36.4055C17.8839 36.4055 16.9078 37.3816 16.9078 38.5857Z" fill="url(#paint6_linear)"/>
<defs>
<linearGradient id="paint0_linear" x1="96.865" y1="6.42504" x2="8.29655" y2="63.5512" gradientUnits="userSpaceOnUse">
<stop stop-color="#EAC5B3"/>
<stop offset="1"/>
</linearGradient>
<linearGradient id="paint1_linear" x1="80.1448" y1="45.0754" x2="73.1175" y2="53.5567" gradientUnits="userSpaceOnUse">
<stop stop-color="#EAC5B3"/>
<stop offset="1"/>
</linearGradient>
<linearGradient id="paint2_linear" x1="88.6138" y1="34.7767" x2="79.6604" y2="46.1658" gradientUnits="userSpaceOnUse">
<stop stop-color="#EAC5B3"/>
<stop offset="1"/>
</linearGradient>
<linearGradient id="paint3_linear" x1="72.2697" y1="33.7075" x2="65.2424" y2="43.8637" gradientUnits="userSpaceOnUse">
<stop stop-color="#EAC5B3"/>
<stop offset="1"/>
</linearGradient>
<linearGradient id="paint4_linear" x1="30.2266" y1="45.6812" x2="23.684" y2="52.3038" gradientUnits="userSpaceOnUse">
<stop stop-color="#EAC5B3"/>
<stop offset="1"/>
</linearGradient>
<linearGradient id="paint5_linear" x1="36.9202" y1="36.4055" x2="31.0748" y2="44.9542" gradientUnits="userSpaceOnUse">
<stop stop-color="#EAC5B3"/>
<stop offset="1"/>
</linearGradient>
<linearGradient id="paint6_linear" x1="22.7147" y1="35.2613" x2="16.9078" y2="43.6017" gradientUnits="userSpaceOnUse">
<stop stop-color="#EAC5B3"/>
<stop offset="1"/>
</linearGradient>
</defs>
</svg>
