<svg width="112" height="64" viewBox="0 0 112 64" fill="none" xmlns="http://www.w3.org/2000/svg">
<path d="M109.652 44.0941C109.036 43.2379 108.308 42.5289 107.481 41.9736V27.262C107.481 19.6915 104.466 12.8223 98.9914 7.9192C93.7187 3.19709 86.5458 0.596313 78.7939 0.596313C71.0419 0.596313 63.869 3.19709 58.5962 7.9192C54.5234 11.5669 51.8118 16.3032 50.6906 21.6068C50.6783 19.5873 50.486 17.4626 50.1137 15.2401C49.7217 12.9016 49.1975 10.9248 48.8269 9.67841C48.0501 7.06718 47.8654 6.90911 47.4606 6.56311C47.0019 6.17046 46.4008 5.98514 45.7997 6.0536C45.1995 6.1214 44.654 6.43513 44.2938 6.92001C44.2101 7.03295 43.7906 7.2115 42.7563 7.17553C41.4528 7.12757 39.7605 6.76522 37.969 6.3815C33.3258 5.38754 27.1199 4.05848 23.8297 8.23424C16.2866 6.84501 10.7105 8.016 7.2405 11.7221C2.55653 16.7249 3.34119 24.799 4.0757 28.6914C1.79477 29.6404 0.186646 31.8917 0.186646 34.5114C0.186646 37.3926 2.13139 39.8281 4.77795 40.5755C5.74792 50.1826 11.205 56.6973 20.3503 59.1683L20.2666 60.8268C20.206 62.0294 21.1317 63.0534 22.3341 63.114C22.3716 63.116 22.4087 63.1169 22.4459 63.1169C23.5995 63.1169 24.5627 62.2117 24.6216 61.0466L24.7969 57.5731C24.8511 56.4949 24.1083 55.5391 23.0501 55.3259C14.23 53.5488 9.3734 47.7458 9.00516 38.544C8.95828 37.3749 7.99681 36.451 6.82669 36.451H6.49029C5.41893 36.451 4.54728 35.5808 4.54728 34.5112C4.54728 33.4416 5.41893 32.5715 6.49029 32.5715H6.80881C6.91739 32.5715 7.024 32.5634 7.12822 32.5482C7.80473 32.611 8.89855 32.6846 10.3102 32.6846C15.7911 32.6844 26.0577 31.5758 35.2688 24.4221C36.5318 27.4912 38.3717 30.4676 42.2499 32.1248C42.4747 32.2209 42.7143 32.2785 42.958 32.295L46.9336 32.5665C47.0053 32.5713 47.0764 32.5726 47.1471 32.5706C47.1682 32.5713 47.1894 32.5717 47.2105 32.5717H47.7111C48.7824 32.5717 49.6541 33.4418 49.6541 34.5114C49.6541 35.5808 48.7824 36.4512 47.7111 36.4512H47.1924C46.0223 36.4512 45.0608 37.3749 45.0139 38.5442C44.6457 47.746 39.7891 53.5488 30.9692 55.3261C29.911 55.5393 29.1682 56.4949 29.2225 57.5733L29.4008 61.1109C29.4597 62.2762 30.4229 63.1812 31.5764 63.1812C31.6135 63.1812 31.6508 63.1803 31.6883 63.1784C32.8909 63.1178 33.8166 62.0935 33.7558 60.8911L33.669 59.1685C39.0393 57.7174 43.1374 54.872 45.8023 50.8251C45.784 51.1591 45.7746 51.4985 45.7746 51.8435C45.7746 58.0952 50.8711 63.1814 57.1353 63.1814H75.1072C76.3113 63.1814 77.2874 62.2051 77.2874 61.0012V54.751C77.2874 53.7128 76.5553 52.8187 75.5373 52.6135C67.9458 51.0856 62.4358 44.3614 62.4358 36.6249V32.5403C67.7662 32.3875 71.4967 31.6432 74.3554 30.1842C76.2315 29.2266 77.7127 27.9562 78.7939 26.3827C79.8751 27.9564 81.3563 29.2266 83.2324 30.1842C86.0911 31.6432 89.8214 32.3875 95.152 32.5403V36.6245C95.152 44.361 89.642 51.0852 82.0505 52.6131C81.0325 52.818 80.3004 53.7123 80.3004 54.7505V61.0008C80.3004 62.2047 81.2767 63.181 82.4806 63.181H100.453C106.717 63.181 111.813 58.0948 111.813 51.843C111.813 48.7388 111.066 46.0594 109.652 44.0941ZM50.1073 28.684C50.0426 28.6571 49.9772 28.6316 49.9113 28.607C49.9813 28.3236 50.0467 28.0373 50.1073 27.748V28.684ZM38.2963 20.0322C38.0551 19.3378 37.4802 18.8118 36.7671 18.6332C36.055 18.4546 35.2994 18.6465 34.7589 19.1451C29.7623 23.7521 23.5945 26.669 16.4262 27.8147C12.9459 28.3709 10.056 28.3515 8.42522 28.2651C7.69616 24.7295 7.17531 18.1723 10.4238 14.7029C12.9943 11.9576 17.695 11.3166 24.3966 12.7983C25.377 13.0133 26.3801 12.531 26.824 11.6306L26.8441 11.5907C28.169 8.96069 31.7476 9.50901 37.0562 10.6458C39.8848 11.2514 42.6116 11.8355 44.7824 11.3862C45.7899 14.9203 47.2615 21.8784 45.5363 28.1005L43.6443 27.9715C40.6973 26.5713 39.6798 24.0137 38.2963 20.0322ZM48.8947 42.9685C49.0395 42.2093 49.1535 41.4282 49.2359 40.625C49.5353 40.5504 49.8263 40.4543 50.1071 40.3385V41.9739C49.6754 42.2638 49.2708 42.5957 48.8947 42.9685ZM100.453 58.8206H84.661V56.4553C93.3662 53.895 99.5126 45.8246 99.5126 36.6245V22.3167C99.5126 21.1127 98.5363 20.1364 97.3324 20.1364C96.1283 20.1364 95.1522 21.1127 95.1522 22.3167V28.1773C84.8636 27.8555 80.9743 25.1082 80.9743 18.4346C80.9743 17.2307 79.998 16.2544 78.7941 16.2544C77.5902 16.2544 76.6139 17.2307 76.6139 18.4346C76.6139 25.108 72.7244 27.8555 62.436 28.1773V22.3167C62.436 21.1127 61.4597 20.1364 60.2558 20.1364C59.0519 20.1364 58.0756 21.1127 58.0756 22.3167V36.6245C58.0756 45.8246 64.222 53.895 72.9272 56.4553V58.8206H57.1355C53.2754 58.8206 50.1353 55.6907 50.1353 51.843C50.1353 49.2436 50.798 44.8875 55.2271 44.8655H55.2675C56.4703 44.8613 57.4424 43.8842 57.4405 42.6816C57.4383 41.4787 56.4631 40.5051 55.2603 40.5051H55.2483C54.9984 40.5024 54.7272 40.4939 54.468 40.4754V27.2622C54.468 14.3377 64.6988 4.95695 78.7943 4.95695C92.8898 4.95695 103.12 14.3375 103.12 27.2622V40.4754C102.857 40.4942 102.581 40.5016 102.328 40.5051C101.126 40.5051 100.15 41.479 100.148 42.6816C100.146 43.8842 101.118 44.8613 102.321 44.8655H102.362C106.79 44.8873 107.453 49.2436 107.453 51.843C107.453 55.6904 104.313 58.8206 100.453 58.8206Z" fill="#262B38"/>
<path d="M82.3119 44.7033C81.4619 43.8511 80.0809 43.8496 79.2287 44.6996C78.9889 44.9386 78.5993 44.9386 78.3597 44.6996C77.5072 43.8496 76.1271 43.8504 75.2764 44.7033C74.4259 45.5556 74.4277 46.9361 75.2801 47.7866C76.2488 48.7533 77.5216 49.2364 78.7942 49.2364C80.0668 49.2364 81.3396 48.7531 82.3082 47.7866C83.1607 46.9361 83.1624 45.5556 82.3119 44.7033Z" fill="#262B38"/>
<path d="M88.8004 38.3538V35.518C88.8004 34.3141 87.8243 33.3378 86.6202 33.3378C85.4162 33.3378 84.4399 34.3141 84.4399 35.518V38.3538C84.4399 39.5577 85.4162 40.534 86.6202 40.534C87.8243 40.534 88.8004 39.5577 88.8004 38.3538Z" fill="#262B38"/>
<path d="M68.7876 35.518V38.3538C68.7876 39.5577 69.7639 40.534 70.9678 40.534C72.1719 40.534 73.148 39.5577 73.148 38.3538V35.518C73.148 34.3141 72.1719 33.3378 70.9678 33.3378C69.7639 33.3378 68.7876 34.3138 68.7876 35.518Z" fill="#262B38"/>
<path d="M30.6189 47.4016C29.7684 46.5489 28.3881 46.5472 27.5354 47.3972C27.2954 47.6366 26.9051 47.6364 26.6657 47.3972C25.8131 46.5472 24.4326 46.5491 23.5823 47.4016C22.7322 48.2543 22.734 49.6345 23.5866 50.485C24.5553 51.4513 25.8279 51.934 27.1007 51.934C28.3733 51.934 29.6459 51.4511 30.6145 50.485C31.4672 49.6345 31.469 48.2543 30.6189 47.4016Z" fill="#262B38"/>
<path d="M37.1069 41.0518V38.216C37.1069 37.0121 36.1306 36.0358 34.9267 36.0358C33.7225 36.0358 32.7465 37.0121 32.7465 38.216V41.0518C32.7465 42.2557 33.7225 43.232 34.9267 43.232C36.1306 43.232 37.1069 42.2557 37.1069 41.0518Z" fill="#262B38"/>
<path d="M17.0945 38.216V41.0518C17.0945 42.2557 18.0708 43.232 19.2747 43.232C20.4786 43.232 21.4549 42.2557 21.4549 41.0518V38.216C21.4549 37.0121 20.4786 36.0358 19.2747 36.0358C18.0706 36.0358 17.0945 37.0118 17.0945 38.216Z" fill="#262B38"/>
</svg>
