<svg width="28" height="24" viewBox="0 0 28 24" fill="none" xmlns="http://www.w3.org/2000/svg">
<path d="M19.2129 0.870239C16.9385 0.870239 15.0417 2.08004 13.7523 3.22988C12.4806 2.0748 10.5902 0.870239 8.2386 0.870239C3.97389 0.870239 0.450886 4.27943 0.218258 8.63178C0.0782882 11.2517 1.08228 13.103 1.84971 14.2676C3.60696 16.9331 11.0594 21.93 12.5356 22.9043C12.8999 23.145 13.3183 23.2651 13.7369 23.2651C14.1553 23.2651 14.5739 23.1448 14.9382 22.9045C16.4092 21.9335 23.8363 16.9528 25.6042 14.265C26.371 13.0984 27.3741 11.2452 27.2339 8.63157C27.001 4.27943 23.4778 0.870239 19.2129 0.870239ZM21.9606 11.8694C21.1273 13.1363 16.9961 16.2316 13.7364 18.4582C10.4639 16.2239 6.31761 13.1226 5.49044 11.8679C4.78187 10.7924 4.51567 9.92225 4.57214 8.86463C4.6794 6.86102 6.32394 5.23087 8.23838 5.23087C9.88422 5.23087 11.4507 7.00818 11.9096 7.68427C12.3077 8.28404 12.9766 8.64879 13.6963 8.6586C14.4221 8.67168 15.0947 8.32175 15.5092 7.73332C15.8811 7.20483 17.6 5.23087 19.2127 5.23087C21.1273 5.23087 22.7721 6.86101 22.8794 8.86485C22.936 9.91985 22.6696 10.7904 21.9606 11.8694Z" fill="url(#paint0_linear)"/>
<defs>
<linearGradient id="paint0_linear" x1="23.0494" y1="0.87024" x2="-5.23122" y2="36.2324" gradientUnits="userSpaceOnUse">
<stop stop-color="#E9C4B2"/>
<stop offset="1"/>
</linearGradient>
</defs>
</svg>
