<svg width="112" height="102" viewBox="0 0 112 102" fill="none" xmlns="http://www.w3.org/2000/svg">
<path d="M75.7261 29.8879C68.3712 29.8879 61.5257 32.111 55.8265 35.9205C52.6226 33.7767 49.1378 32.1834 45.4766 31.1742L57.3044 18.3986C58.0014 17.6458 58.0793 16.5088 57.4913 15.6681L47.5892 1.5059C47.1813 0.922477 46.5141 0.574951 45.8025 0.574951H25.9986C25.2867 0.574951 24.6198 0.922477 24.2119 1.5059L14.4738 15.4342L14.3107 15.667C13.722 16.5077 13.7994 17.6453 14.4969 18.3986L26.3321 31.1825C11.1664 35.3807 0 49.3044 0 65.7872C0 85.582 16.105 101.686 35.9006 101.686C43.0629 101.686 49.9216 99.6049 55.8265 95.6535C61.5257 99.4629 68.3712 101.686 75.7261 101.686C95.5218 101.686 111.627 85.582 111.627 65.7872C111.627 45.9924 95.5218 29.8879 75.7261 29.8879ZM18.8906 16.7262L27.1347 4.93537H44.6668L52.9109 16.7262L40.4614 30.1733C38.9595 29.9838 37.4373 29.8881 35.9011 29.8881C34.3573 29.8881 32.8359 29.986 31.3429 30.1761L18.8906 16.7262ZM35.9006 97.3257C18.5091 97.3257 4.36042 83.1774 4.36042 65.7872C4.36042 48.3965 18.5091 34.2485 35.9006 34.2485C41.6884 34.2485 47.2499 35.7949 52.1408 38.7435C50.7821 39.9299 49.513 41.2169 48.3457 42.5926C44.5308 40.5393 40.2635 39.4612 35.9006 39.4612C21.3839 39.4612 9.57352 51.2709 9.57352 65.7872C9.57352 80.3035 21.3839 92.1132 35.9006 92.1132C40.2635 92.1132 44.531 91.0351 48.3459 88.9818C49.5132 90.3575 50.7821 91.6443 52.1408 92.8307C47.2502 95.7793 41.6887 97.3257 35.9006 97.3257ZM45.6981 46.1304C41.9865 51.7809 39.8255 58.5363 39.8255 65.787C39.8255 73.0377 41.9865 79.7933 45.6981 85.4435C42.6678 86.9592 39.3196 87.7526 35.9006 87.7526C23.7881 87.7526 13.9339 77.8989 13.9339 65.787C13.9339 53.6751 23.7881 43.8214 35.9006 43.8214C39.3196 43.8216 42.6676 44.6147 45.6981 46.1304ZM75.7261 97.3257C58.3346 97.3257 44.1859 83.1774 44.1859 65.7872C44.1859 48.3965 58.3348 34.2485 75.7261 34.2485C93.1174 34.2485 107.266 48.3965 107.266 65.7872C107.266 83.1774 93.1174 97.3257 75.7261 97.3257Z" fill="url(#paint0_linear)"/>
<path d="M75.7259 39.4612C61.2092 39.4612 49.3988 51.2709 49.3988 65.7872C49.3988 80.3035 61.2092 92.1133 75.7259 92.1133C90.2426 92.1133 102.053 80.3035 102.053 65.7872C102.053 51.2709 90.2426 39.4612 75.7259 39.4612ZM75.7259 87.7528C63.6133 87.7528 53.7592 77.8992 53.7592 65.7872C53.7592 53.6753 63.6133 43.8216 75.7259 43.8216C87.8385 43.8216 97.6926 53.6753 97.6926 65.7872C97.6926 77.8992 87.8385 87.7528 75.7259 87.7528Z" fill="url(#paint1_linear)"/>
<defs>
<linearGradient id="paint0_linear" x1="80.7645" y1="16.1028" x2="6.20643" y2="107.801" gradientUnits="userSpaceOnUse">
<stop stop-color="#E9C4B2"/>
<stop offset="1"/>
</linearGradient>
<linearGradient id="paint1_linear" x1="92.7623" y1="39.4612" x2="41.7714" y2="118.084" gradientUnits="userSpaceOnUse">
<stop stop-color="#E9C4B2"/>
<stop offset="1"/>
</linearGradient>
</defs>
</svg>
