<svg width="112" height="102" viewBox="0 0 112 102" fill="none" xmlns="http://www.w3.org/2000/svg">
<path d="M75.9129 29.518C68.5579 29.518 61.7125 31.7412 56.0132 35.5506C52.8094 33.4068 49.3246 31.8135 45.6633 30.8043L57.4912 18.0287C58.1882 17.2759 58.266 16.1389 57.678 15.2982L47.776 1.13603C47.368 0.552604 46.7009 0.205078 45.9893 0.205078H26.1853C25.4735 0.205078 24.8066 0.552604 24.3987 1.13603L14.6605 15.0643L14.4974 15.2971C13.9088 16.1378 13.9862 17.2755 14.6836 18.0287L26.5189 30.8126C11.3531 35.0108 0.186768 48.9345 0.186768 65.4173C0.186768 85.2121 16.2918 101.316 36.0874 101.316C43.2496 101.316 50.1083 99.235 56.0132 95.2836C61.7125 99.0931 68.5579 101.316 75.9129 101.316C95.7085 101.316 111.814 85.2121 111.814 65.4173C111.814 45.6226 95.7085 29.518 75.9129 29.518ZM19.0774 16.3563L27.3214 4.5655H44.8536L53.0976 16.3563L40.6482 29.8034C39.1462 29.6139 37.624 29.5182 36.0878 29.5182C34.544 29.5182 33.0227 29.6161 31.5297 29.8062L19.0774 16.3563ZM36.0874 96.9558C18.6959 96.9558 4.54719 82.8076 4.54719 65.4173C4.54719 48.0267 18.6959 33.8786 36.0874 33.8786C41.8752 33.8786 47.4367 35.4251 52.3276 38.3736C50.9689 39.56 49.6998 40.847 48.5325 42.2227C44.7176 40.1694 40.4502 39.0913 36.0874 39.0913C21.5707 39.0913 9.76029 50.9011 9.76029 65.4173C9.76029 79.9336 21.5707 91.7434 36.0874 91.7434C40.4502 91.7434 44.7178 90.6653 48.5327 88.6119C49.7 89.9876 50.9689 91.2744 52.3276 92.4609C47.4369 95.4094 41.8754 96.9558 36.0874 96.9558ZM45.8848 45.7606C42.1732 51.411 40.0122 58.1664 40.0122 65.4171C40.0122 72.6678 42.1732 79.4234 45.8848 85.0737C42.8546 86.5893 39.5064 87.3827 36.0874 87.3827C23.9748 87.3827 14.1207 77.5291 14.1207 65.4171C14.1207 53.3052 23.9748 43.4515 36.0874 43.4515C39.5064 43.4517 42.8543 44.2449 45.8848 45.7606ZM75.9129 96.9558C58.5213 96.9558 44.3726 82.8076 44.3726 65.4173C44.3726 48.0267 58.5216 33.8786 75.9129 33.8786C93.3042 33.8786 107.453 48.0267 107.453 65.4173C107.453 82.8076 93.3042 96.9558 75.9129 96.9558Z" fill="#262B38"/>
<path d="M75.9127 39.0913C61.396 39.0913 49.5856 50.9011 49.5856 65.4173C49.5856 79.9336 61.396 91.7434 75.9127 91.7434C90.4294 91.7434 102.24 79.9336 102.24 65.4173C102.24 50.9011 90.4294 39.0913 75.9127 39.0913ZM75.9127 87.383C63.8001 87.383 53.946 77.5293 53.946 65.4173C53.946 53.3054 63.8001 43.4517 75.9127 43.4517C88.0253 43.4517 97.8794 53.3054 97.8794 65.4173C97.8794 77.5293 88.0253 87.383 75.9127 87.383Z" fill="#262B38"/>
</svg>
