<svg width="28" height="23" viewBox="0 0 28 23" fill="none" xmlns="http://www.w3.org/2000/svg">
<path d="M19.3997 0.500244C17.1253 0.500244 15.2285 1.71004 13.9391 2.85988C12.6674 1.70481 10.7769 0.500244 8.42537 0.500244C4.16066 0.500244 0.637654 3.90943 0.405025 8.26179C0.265056 10.8817 1.26904 12.733 2.03648 13.8976C3.79373 16.5632 11.2461 21.56 12.7223 22.5343C13.0867 22.775 13.505 22.8951 13.9236 22.8951C14.342 22.8951 14.7606 22.7748 15.1249 22.5345C16.5959 21.5635 24.023 16.5828 25.791 13.895C26.5577 12.7284 27.5608 10.8752 27.4207 8.26157C27.1878 3.90944 23.6646 0.500244 19.3997 0.500244ZM22.1474 11.4994C21.3141 12.7663 17.1828 15.8616 13.9232 18.0882C10.6507 15.8539 6.50438 12.7526 5.67721 11.4979C4.96864 10.4224 4.70244 9.55226 4.7589 8.49464C4.86617 6.49102 6.5107 4.86088 8.42515 4.86088C10.071 4.86088 11.6375 6.63819 12.0964 7.31427C12.4945 7.91405 13.1634 8.27879 13.8831 8.28861C14.6089 8.30169 15.2815 7.95176 15.6959 7.36332C16.0679 6.83484 17.7867 4.86088 19.3994 4.86088C21.3141 4.86088 22.9589 6.49102 23.0661 8.49485C23.1228 9.54985 22.8564 10.4204 22.1474 11.4994Z" fill="#262B38"/>
</svg>
