<svg width="973" height="1004" viewBox="0 0 973 1004" fill="none" xmlns="http://www.w3.org/2000/svg">
<path d="M734.786 353C734.786 397.926 697.29 434.375 651 434.375C604.71 434.375 567.214 397.926 567.214 353C567.214 308.074 604.71 271.625 651 271.625C697.29 271.625 734.786 308.074 734.786 353Z" stroke="white" stroke-opacity="0.18" stroke-width="1.20556"/>
<circle cx="651" cy="353" r="224.836" stroke="white" stroke-opacity="0.18" stroke-width="1.20556"/>
<path d="M1016.89 353C1016.89 555.741 853.071 720.092 651 720.092C448.929 720.092 285.114 555.741 285.114 353C285.114 150.259 448.929 -14.0916 651 -14.0916C853.071 -14.0916 1016.89 150.259 1016.89 353Z" stroke="white" stroke-opacity="0.18" stroke-width="1.20556"/>
<path d="M1157.94 353C1157.94 633.64 930.972 861.142 651 861.142C371.028 861.142 144.064 633.64 144.064 353C144.064 72.3598 371.028 -155.142 651 -155.142C930.972 -155.142 1157.94 72.3598 1157.94 353Z" stroke="white" stroke-opacity="0.18" stroke-width="1.20556"/>
<circle cx="651" cy="353" r="650.397" stroke="white" stroke-opacity="0.18" stroke-width="1.20556"/>
</svg>
